<?xml version="1.0" encoding="UTF-8" standalone="no"?>
<!-- Created with Inkscape (http://www.inkscape.org/) -->

<svg
   width="201.34697mm"
   height="137.84801mm"
   viewBox="0 0 201.34697 137.84801"
   version="1.1"
   id="svg1"
   inkscape:version="1.3 (0e150ed6c4, 2023-07-21)"
   sodipodi:docname="header-bckgrd.svg"
   xmlns:inkscape="http://www.inkscape.org/namespaces/inkscape"
   xmlns:sodipodi="http://sodipodi.sourceforge.net/DTD/sodipodi-0.dtd"
   xmlns="http://www.w3.org/2000/svg"
   xmlns:svg="http://www.w3.org/2000/svg">
  <sodipodi:namedview
     id="namedview1"
     pagecolor="#ffffff"
     bordercolor="#000000"
     borderopacity="0.25"
     inkscape:showpageshadow="2"
     inkscape:pageopacity="0.0"
     inkscape:pagecheckerboard="0"
     inkscape:deskcolor="#d1d1d1"
     inkscape:document-units="mm"
     inkscape:zoom="0.65638516"
     inkscape:cx="322.9811"
     inkscape:cy="335.93081"
     inkscape:window-width="1366"
     inkscape:window-height="697"
     inkscape:window-x="-8"
     inkscape:window-y="-8"
     inkscape:window-maximized="1"
     inkscape:current-layer="layer1" />
  <defs
     id="defs1" />
  <g
     inkscape:label="Layer 1"
     inkscape:groupmode="layer"
     id="layer1"
     transform="translate(-4.6758876,-13.449315)">
    <rect
       style="fill:#ffa000;fill-opacity:1;stroke:none;stroke-width:2;stroke-dasharray:none"
       id="rect1"
       width="200.55435"
       height="137.84801"
       x="5.4685078"
       y="13.449315"
       ry="0.6708135" />
    <path
       style="fill:none;fill-opacity:1;stroke:#006e80;stroke-width:2.02248;stroke-opacity:1"
       d="m 6.1069686,121.7463 c 2.520693,-6.62949 8.4436434,-11.71189 15.5903694,-13.14525 2.237293,-0.44872 4.137697,-1.22217 6.552138,-0.82016 4.12589,0.68698 7.109153,3.31174 10.850524,4.87536 6.581411,2.75057 13.716169,4.54863 20.911078,4.03243 5.269467,-0.37806 9.218843,-3.07507 13.731605,-5.26266 4.377929,-2.12222 9.090519,-3.90748 13.940719,-4.4425 6.40193,-0.70619 12.904598,1.74852 18.634088,4.23747 5.10108,2.21596 9.82635,5.57431 15.56714,6.28784 5.02786,0.62493 12.00163,0.27568 16.61267,-2.0276 3.23882,-1.61783 9.41277,-5.29407 12.9184,-5.87777 5.76871,-0.96052 6.8219,1.06401 11.26876,2.84776 3.43641,1.37842 6.99459,3.09431 10.64141,3.85016 3.89038,0.80635 11.62415,2.35979 15.38126,1.41249 2.33488,-0.5887 4.77523,-1.42224 7.17947,-1.82256 2.83131,-0.47143 6.09165,0.20503 8.80589,0.20503"
       id="path1-6-0" />
    <path
       style="fill:none;fill-opacity:1;stroke:#006e80;stroke-width:2.02248;stroke-opacity:1"
       d="m 7.1677171,141.08495 c 2.520693,-6.62949 8.4436429,-11.71189 15.5903689,-13.14525 2.237293,-0.44872 4.137697,-1.22217 6.552138,-0.82016 4.12589,0.68698 7.109153,3.31174 10.850524,4.87536 6.581411,2.75057 13.716169,4.54863 20.911078,4.03243 5.269467,-0.37806 9.218843,-3.07507 13.731605,-5.26266 4.377932,-2.12222 9.090519,-3.90748 13.940719,-4.4425 6.40193,-0.70619 12.9046,1.74852 18.63409,4.23747 5.10108,2.21596 9.82635,5.57431 15.56714,6.28784 5.02786,0.62493 12.00163,0.27568 16.61267,-2.0276 3.23882,-1.61783 9.41277,-5.29407 12.9184,-5.87777 5.76871,-0.96052 6.8219,1.06401 11.26876,2.84776 3.43641,1.37842 6.99459,3.09431 10.64141,3.85016 3.89038,0.80635 11.62415,2.35979 15.38126,1.41249 2.33488,-0.5887 4.77523,-1.42224 7.17947,-1.82256 2.83131,-0.47143 6.09165,0.20503 8.80589,0.20503"
       id="path1-6-7" />
    <path
       style="fill:none;fill-opacity:1;stroke:#006e80;stroke-width:2.02248;stroke-opacity:1"
       d="m 6.0059489,37.370446 c 2.520693,-6.62949 8.4436431,-11.71189 15.5903691,-13.14525 2.237293,-0.44872 4.137697,-1.22217 6.552138,-0.82016 4.12589,0.68698 7.109153,3.31174 10.850524,4.87536 6.581411,2.75057 13.716169,4.54863 20.911078,4.03243 5.269467,-0.37806 9.218843,-3.07507 13.731605,-5.26266 4.377932,-2.12222 9.090519,-3.90748 13.940719,-4.4425 6.40193,-0.70619 12.904598,1.74852 18.634088,4.23747 5.10108,2.21596 9.82635,5.57431 15.56714,6.28784 5.02786,0.62493 12.00163,0.27568 16.61267,-2.0276 3.23882,-1.61783 9.41277,-5.29407 12.9184,-5.87777 5.76871,-0.96052 6.8219,1.06401 11.26876,2.84776 3.43641,1.37842 6.99459,3.09431 10.64141,3.85016 3.89038,0.80635 11.62415,2.35979 15.38126,1.41249 2.33488,-0.5887 4.77523,-1.42224 7.17947,-1.82256 2.83131,-0.47143 6.09165,0.20503 8.80589,0.20503"
       id="path1-6-4" />
    <path
       style="fill:none;fill-opacity:1;stroke:#006e80;stroke-width:2.02248;stroke-opacity:1"
       d="M 6.4369729,57.061547 C 8.9576664,50.432056 14.880616,45.349661 22.027342,43.916299 c 2.237293,-0.448718 4.137697,-1.222171 6.552138,-0.820155 4.12589,0.686977 7.109153,3.311733 10.850524,4.87536 6.581411,2.750563 13.716169,4.54863 20.911078,4.032426 5.269467,-0.378062 9.218843,-3.075074 13.731605,-5.262657 4.377932,-2.122223 9.09052,-3.90748 13.940719,-4.442501 6.401928,-0.706194 12.904604,1.748515 18.634094,4.237463 5.10108,2.215961 9.82635,5.574315 15.56714,6.28785 5.02786,0.624924 12.00163,0.275677 16.61267,-2.027605 3.23882,-1.617831 9.41277,-5.294069 12.9184,-5.877772 5.76871,-0.960514 6.8219,1.064012 11.26876,2.847757 3.43641,1.37843 6.99459,3.09431 10.64141,3.850169 3.89038,0.806342 11.62415,2.359787 15.38126,1.412488 2.33488,-0.588703 4.77523,-1.422245 7.17947,-1.822564 2.83131,-0.471426 6.09165,0.205036 8.80589,0.205036"
       id="path1" />
    <path
       style="fill:none;fill-opacity:1;stroke:#006e80;stroke-width:2.02248;stroke-opacity:1"
       d="m 7.1196648,78.534855 c 2.520693,-6.62949 8.4436432,-11.71189 15.5903692,-13.14525 2.237293,-0.44872 4.137697,-1.22217 6.552138,-0.82016 4.12589,0.68698 7.109153,3.31174 10.850524,4.87536 6.581411,2.75057 13.716169,4.54863 20.911078,4.03243 5.269467,-0.37806 9.218843,-3.07507 13.731605,-5.26266 4.377932,-2.12222 9.09052,-3.90748 13.940719,-4.4425 6.401928,-0.70619 12.904602,1.74852 18.634092,4.23747 5.10108,2.21596 9.82635,5.57431 15.56714,6.28784 5.02786,0.62493 12.00163,0.27568 16.61267,-2.0276 3.23882,-1.61783 9.41277,-5.29407 12.9184,-5.87777 5.76871,-0.96052 6.8219,1.06401 11.26876,2.84776 3.43641,1.37842 6.99459,3.09431 10.64141,3.85016 3.89038,0.80635 11.62415,2.35979 15.38126,1.41249 2.33488,-0.5887 4.77523,-1.42224 7.17947,-1.82256 2.83131,-0.47143 6.09165,0.20503 8.80589,0.20503"
       id="path1-6" />
    <path
       style="fill:none;fill-opacity:1;stroke:#006e80;stroke-width:2.02248;stroke-opacity:1"
       d="m 5.6211077,99.523716 c 2.520693,-6.62949 8.4436433,-11.711892 15.5903693,-13.145252 2.237293,-0.44872 4.137697,-1.22217 6.552138,-0.82016 4.12589,0.68698 7.109153,3.31174 10.850524,4.875362 6.581411,2.75057 13.716169,4.54863 20.911078,4.03243 5.269467,-0.37806 9.218843,-3.07507 13.731605,-5.26266 4.377932,-2.122222 9.09052,-3.907482 13.940716,-4.442502 6.40193,-0.70619 12.904612,1.74852 18.634102,4.23747 5.10107,2.215962 9.82634,5.574312 15.56713,6.287842 5.02786,0.62493 12.00163,0.27568 16.61267,-2.0276 3.23882,-1.61783 9.41277,-5.294072 12.9184,-5.877772 5.76871,-0.96052 6.8219,1.06401 11.26876,2.847762 3.43641,1.37842 6.99459,3.09431 10.64141,3.85016 3.89038,0.80635 11.62415,2.35979 15.38126,1.41249 2.33488,-0.5887 4.77523,-1.42224 7.17947,-1.82256 2.83131,-0.47143 6.09165,0.20503 8.8059,0.20503"
       id="path1-6-6" />
    <path
       sodipodi:type="star"
       style="fill:none;fill-opacity:1;stroke:#006e80;stroke-width:0;stroke-dasharray:none;stroke-opacity:1"
       id="path2"
       inkscape:flatsided="false"
       sodipodi:sides="5"
       sodipodi:cx="26.792706"
       sodipodi:cy="37.053741"
       sodipodi:r1="14.251439"
       sodipodi:r2="4.635128"
       sodipodi:arg1="0.64350111"
       sodipodi:arg2="1.2718196"
       inkscape:rounded="0"
       inkscape:randomized="0"
       d="M 38.193857,45.604605 28.157948,41.483248 22.183501,50.539243 23.001878,39.720957 12.542909,36.837376 23.084603,34.272665 22.595052,23.434519 28.2918,32.667726 38.448209,28.852964 31.427299,37.124112 Z"
       inkscape:transform-center-x="1.2971465"
       inkscape:transform-center-y="-0.066860821" />
    <path
       sodipodi:type="star"
       style="fill:none;fill-opacity:1;stroke:#006e80;stroke-width:0;stroke-dasharray:none;stroke-opacity:1"
       id="path4"
       inkscape:flatsided="false"
       sodipodi:sides="5"
       sodipodi:cx="12.541266"
       sodipodi:cy="158.476"
       sodipodi:r1="31.969"
       sodipodi:r2="20.984413"
       sodipodi:arg1="0.38381763"
       sodipodi:arg2="1.0121361"
       inkscape:rounded="0"
       inkscape:randomized="0"
       d="m 42.184261,170.44721 -18.520194,5.82286 -13.347908,14.0974 -11.26092369,-15.81439 -17.53215531,-8.33828 11.5605602,-15.59669 2.5124406,-19.25074 18.4057422,6.17511 19.084929,-3.55934 -0.185186,19.41312 z"
       inkscape:transform-center-x="0.819549"
       inkscape:transform-center-y="-1.5577223" />
    <path
       sodipodi:type="star"
       style="fill:none;fill-opacity:1;stroke:#006e80;stroke-width:1.4;stroke-dasharray:none;stroke-opacity:1"
       id="path5"
       inkscape:flatsided="false"
       sodipodi:sides="5"
       sodipodi:cx="10.261037"
       sodipodi:cy="163.60652"
       sodipodi:r1="4.5604606"
       sodipodi:r2="2.9934807"
       sodipodi:arg1="0"
       sodipodi:arg2="0.62831853"
       inkscape:rounded="0"
       inkscape:randomized="0"
       d="m 14.821497,163.60652 -2.138683,1.75953 -1.012517,2.57773 -2.3342965,-1.49029 -2.7644537,-0.1664 0.6960094,-2.68057 -0.6960094,-2.68057 2.7644537,-0.1664 2.3342965,-1.49028 1.012517,2.57773 z"
       inkscape:transform-center-x="-0.43548511"
       inkscape:transform-center-y="-2.0611846e-06"
       transform="translate(185.26871,-19.952015)" />
    <path
       sodipodi:type="star"
       style="fill:none;fill-opacity:1;stroke:#006e80;stroke-width:1.8;stroke-dasharray:none;stroke-opacity:1"
       id="path11"
       inkscape:flatsided="false"
       sodipodi:sides="5"
       sodipodi:cx="84.368515"
       sodipodi:cy="23.942417"
       sodipodi:r1="21.398052"
       sodipodi:r2="8.9657841"
       sodipodi:arg1="0.8419416"
       sodipodi:arg2="1.4702601"
       inkscape:rounded="0"
       inkscape:randomized="0"
       d="M 98.619955,39.90403 85.268383,32.862928 73.592056,42.428752 76.162679,27.554832 63.456857,19.405987 78.397161,17.254501 82.220858,2.6524146 88.883851,16.196643 103.95285,15.320902 93.1305,25.843181 Z"
       inkscape:transform-center-x="0.3268295"
       inkscape:transform-center-y="-0.53126458"
       transform="matrix(0.49246327,0,0,0.37897812,-20.548653,48.096773)" />
    <path
       sodipodi:type="star"
       style="fill:none;fill-opacity:1;stroke:#006e80;stroke-width:1.8;stroke-dasharray:none;stroke-opacity:1"
       id="path12"
       inkscape:flatsided="false"
       sodipodi:sides="5"
       sodipodi:cx="19.381958"
       sodipodi:cy="124.27255"
       sodipodi:r1="6.8644023"
       sodipodi:r2="2.8761845"
       sodipodi:arg1="0.84415399"
       sodipodi:arg2="1.4724725"
       inkscape:rounded="0"
       inkscape:randomized="0"
       d="m 23.942419,129.40307 -4.278119,-2.26822 -3.752495,3.06038 0.835199,-4.76966 -4.070179,-2.62312 4.7943,-0.67958 1.236986,-4.68157 2.127841,4.34965 4.834679,-0.27024 -3.479222,3.36782 z"
       inkscape:transform-center-x="0.20823048"
       inkscape:transform-center-y="-0.45428897" />
    <path
       sodipodi:type="star"
       style="fill:none;fill-opacity:1;stroke:#006e80;stroke-width:1.8;stroke-dasharray:none;stroke-opacity:1"
       id="path13"
       inkscape:flatsided="false"
       sodipodi:sides="5"
       sodipodi:cx="175.57773"
       sodipodi:cy="22.802301"
       sodipodi:r1="5.255671"
       sodipodi:r2="2.202126"
       sodipodi:arg1="0.70862627"
       sodipodi:arg2="1.3369448"
       inkscape:rounded="0"
       inkscape:randomized="0"
       d="m 179.56813,26.222647 -3.48011,-1.278159 -2.53013,2.709857 0.14019,-3.704757 -3.35908,-1.568904 3.56675,-1.011507 0.4541,-3.679493 2.06419,3.079611 3.63973,-0.705147 -2.29101,2.914811 z"
       inkscape:transform-center-x="0.37634636"
       inkscape:transform-center-y="-0.13028727" />
    <path
       sodipodi:type="star"
       style="fill:none;fill-opacity:1;stroke:#006e80;stroke-width:1.8;stroke-dasharray:none;stroke-opacity:1"
       id="path14"
       inkscape:flatsided="false"
       sodipodi:sides="5"
       sodipodi:cx="190.96928"
       sodipodi:cy="38.193855"
       sodipodi:r1="6.6479564"
       sodipodi:r2="2.7854936"
       sodipodi:arg1="1.0303768"
       sodipodi:arg2="1.6586954"
       inkscape:rounded="0"
       inkscape:randomized="0"
       d="m 194.38963,43.894431 -3.66487,-2.925836 -4.1201,2.239777 1.65013,-4.389634 -3.40334,-3.226317 4.68471,0.212893 2.01672,-4.23375 1.24518,4.521209 4.64974,0.609715 -3.91514,2.581368 z"
       inkscape:transform-center-x="-0.18033891"
       inkscape:transform-center-y="-0.46085824" />
    <path
       sodipodi:type="star"
       style="fill:none;fill-opacity:1;stroke:#006e80;stroke-width:1.8;stroke-dasharray:none;stroke-opacity:1"
       id="path15"
       inkscape:flatsided="false"
       sodipodi:sides="5"
       sodipodi:cx="87.218811"
       sodipodi:cy="57.575813"
       sodipodi:r1="4.1107435"
       sodipodi:r2="1.7224015"
       sodipodi:arg1="0.98279372"
       sodipodi:arg2="1.6111123"
       inkscape:rounded="0"
       inkscape:randomized="0"
       d="m 89.499041,60.996159 -2.349651,-1.699344 -2.478891,1.504571 0.89009,-2.759778 -2.196952,-1.892627 2.899758,-0.0063 1.1211,-2.674279 0.902059,2.755888 2.889829,0.239832 -2.342254,1.709526 z"
       inkscape:transform-center-x="-0.051197934"
       inkscape:transform-center-y="-0.34352967" />
    <path
       sodipodi:type="star"
       style="fill:none;fill-opacity:1;stroke:#006e80;stroke-width:1.8;stroke-dasharray:none;stroke-opacity:1"
       id="path16"
       inkscape:flatsided="false"
       sodipodi:sides="5"
       sodipodi:cx="139.66409"
       sodipodi:cy="37.623802"
       sodipodi:r1="11.696604"
       sodipodi:r2="4.9008765"
       sodipodi:arg1="0.81986726"
       sodipodi:arg2="1.4481858"
       inkscape:rounded="0"
       inkscape:randomized="0"
       d="m 147.6449,46.174666 -7.38141,-3.686779 -6.26555,5.368475 1.22536,-8.159417 -7.04189,-4.299937 8.13873,-1.356017 1.91342,-8.025983 3.80465,7.321352 8.22444,-0.660393 -5.78731,5.880862 z"
       inkscape:transform-center-x="0.37878791"
       inkscape:transform-center-y="-0.55233947"
       transform="matrix(0.85686594,0,0,0.80268219,-3.7439199,10.963519)" />
    <path
       sodipodi:type="star"
       style="fill:none;fill-opacity:1;stroke:#006e80;stroke-width:1.8;stroke-dasharray:none;stroke-opacity:1"
       id="path17"
       inkscape:flatsided="false"
       sodipodi:sides="5"
       sodipodi:cx="28.502878"
       sodipodi:cy="33.063339"
       sodipodi:r1="2.8502879"
       sodipodi:r2="1.1942705"
       sodipodi:arg1="0.92729522"
       sodipodi:arg2="1.5556137"
       inkscape:rounded="0"
       inkscape:randomized="0"
       d="m 30.213051,35.34357 -1.692041,-1.086098 -1.658287,1.136968 0.51007,-1.944849 -1.593759,-1.225783 2.007282,-0.115885 0.673289,-1.894543 0.730498,1.873228 2.009876,0.05489 -1.55581,1.273605 z"
       inkscape:transform-center-x="0.013372469"
       inkscape:transform-center-y="-0.25942969" />
    <path
       sodipodi:type="star"
       style="fill:none;fill-opacity:1;stroke:#006e80;stroke-width:1.8;stroke-dasharray:none;stroke-opacity:1"
       id="path18"
       inkscape:flatsided="false"
       sodipodi:sides="5"
       sodipodi:cx="50.165066"
       sodipodi:cy="35.913631"
       sodipodi:r1="10.480381"
       sodipodi:r2="4.3912792"
       sodipodi:arg1="0.78539816"
       sodipodi:arg2="1.4137167"
       inkscape:rounded="0"
       inkscape:randomized="0"
       d="m 57.575814,43.32438 -6.723801,-3.073533 -5.444941,5.000872 0.845335,-7.344489 -6.438691,-3.633091 7.246246,-1.465611 1.465611,-7.246247 3.633092,6.438692 7.344489,-0.845335 -5.000873,5.444941 z"
       inkscape:transform-center-x="0.50663177"
       inkscape:transform-center-y="-0.50663159"
       transform="translate(7.4107486,-9.1209213)" />
    <path
       sodipodi:type="star"
       style="fill:none;fill-opacity:1;stroke:#006e80;stroke-width:1.8;stroke-dasharray:none;stroke-opacity:1"
       id="path19"
       inkscape:flatsided="false"
       sodipodi:sides="5"
       sodipodi:cx="157.33589"
       sodipodi:cy="38.193855"
       sodipodi:r1="3.069854"
       sodipodi:r2="1.2862686"
       sodipodi:arg1="1.1902899"
       sodipodi:arg2="1.8186085"
       inkscape:rounded="0"
       inkscape:randomized="0"
       d="m 158.47601,41.044143 -1.45562,-1.603313 -2.04297,0.718127 1.07503,-1.879824 -1.31429,-1.721066 2.12002,0.441518 1.2307,-1.781804 0.23521,2.152697 2.0749,0.619851 -1.97465,0.888922 z"
       inkscape:transform-center-x="-0.23268307"
       inkscape:transform-center-y="-0.062893644" />
    <path
       sodipodi:type="star"
       style="fill:none;fill-opacity:1;stroke:#006e80;stroke-width:1.8;stroke-dasharray:none;stroke-opacity:1"
       id="path20"
       inkscape:flatsided="false"
       sodipodi:sides="5"
       sodipodi:cx="54.155468"
       sodipodi:cy="58.715931"
       sodipodi:r1="3.2247326"
       sodipodi:r2="1.3511627"
       sodipodi:arg1="0.78539816"
       sodipodi:arg2="1.4137167"
       inkscape:rounded="0"
       inkscape:randomized="0"
       d="m 56.435698,60.996161 -2.068862,-0.945702 -1.675366,1.53873 0.260103,-2.259843 -1.981136,-1.117874 2.229615,-0.450957 0.450957,-2.229615 1.117874,1.981136 2.259843,-0.260103 -1.53873,1.675366 z"
       inkscape:transform-center-x="0.15588719"
       inkscape:transform-center-y="-0.15588724" />
    <path
       sodipodi:type="star"
       style="fill:none;fill-opacity:1;stroke:#006e80;stroke-width:1.8;stroke-dasharray:none;stroke-opacity:1"
       id="path21"
       inkscape:flatsided="false"
       sodipodi:sides="5"
       sodipodi:cx="83.228409"
       sodipodi:cy="97.479843"
       sodipodi:r1="4.8370986"
       sodipodi:r2="2.0267441"
       sodipodi:arg1="0.78539816"
       sodipodi:arg2="1.4137167"
       inkscape:rounded="0"
       inkscape:randomized="0"
       d="m 86.648754,100.90019 -3.103293,-1.418555 -2.513049,2.308095 0.390155,-3.389764 -2.971704,-1.676812 3.344421,-0.676435 0.676436,-3.344422 1.676811,2.971704 3.389764,-0.390155 -2.308095,2.51305 z"
       inkscape:transform-center-x="0.2338308"
       inkscape:transform-center-y="-0.23383098" />
  </g>
</svg>
